# xmcd CD database file
#
# Track frame offsets:
#	150
#	17355
#	37388
#	61443
#	80635
#	86483
#	107793
#	131553
#	153068
#	161383
#	194550
#
# Disc length: 2848 seconds
#
# Revision: 0
# Processed by: cddbd v1.5.1PL0 Copyright (c) Steve Scherf et al.
# Submitted via: CDex 1.50
#
DISCID=890b1e0b
DTITLE=CARMEN McRAE - live at Bubba's
DYEAR=1900
DGENRE=Jazz
TTITLE0=black magic
TTITLE1=last winter
TTITLE2=new york state of mind
TTITLE3=unserneath the apple tree
TTITLE4=thou swell
TTITLE5=send in the clowns
TTITLE6=introduction - i just can't wait to see you
TTITLE7=how long
TTITLE8=if i were a bell
TTITLE9=my foolish heart
TTITLE10=secret love
EXTD=
EXTT0=
EXTT1=
EXTT2=
EXTT3=
EXTT4=
EXTT5=
EXTT6=
EXTT7=
EXTT8=
EXTT9=
EXTT10=
PLAYORDER=
